<svg id="Layer_1" data-name="Layer 1" xmlns="http://www.w3.org/2000/svg" viewBox="0 0 121.75 133.24"><defs><style>.cls-1{fill:#606060;fill-rule:evenodd;}</style></defs><title>Artboard 4</title><path class="cls-1" d="M17.7,25a3.13,3.13,0,0,1,3-3.23H53.1a3.29,3.29,0,0,1,3,3.23,3.09,3.09,0,0,1-3,3H20.72a3,3,0,0,1-3-3Zm44.69,99.6H16.19A8.65,8.65,0,0,1,7.56,116V16.39a8.7,8.7,0,0,1,8.63-8.84H57a8.7,8.7,0,0,1,8.63,8.84v12.5a5.8,5.8,0,0,0,5.83,5.82H85.7a8.7,8.7,0,0,1,8.63,8.84V65.76a29.63,29.63,0,0,1,7.56,1.72V38.81a18.72,18.72,0,0,0-4.75-11.43L74.48,4.74C72.1,2.16,66.7,0,63.25,0H5.83A5.94,5.94,0,0,0,0,5.82V126.34a5.8,5.8,0,0,0,5.83,5.82H71.24a36.57,36.57,0,0,1-8.85-7.55ZM20.72,44.41H53.1a3,3,0,1,0,0-6H20.72a3,3,0,1,0,0,6Zm0,33H63a33.22,33.22,0,0,1,7.34-6H20.72a3,3,0,1,0,0,6Zm0,33H55a50.08,50.08,0,0,1-1.08-6H20.72a3,3,0,1,0,0,6Zm0-16.39H54.83a52.86,52.86,0,0,1,1.73-6.25H20.72a3.13,3.13,0,0,0-3,3.23,3.09,3.09,0,0,0,3,3Zm0-33H81a3.13,3.13,0,0,0,3.24-3A3.32,3.32,0,0,0,81,54.76H20.72a3.13,3.13,0,0,0-3,3.23,3,3,0,0,0,3,3Zm101,40.53A31.73,31.73,0,1,1,90,69.85a31.76,31.76,0,0,1,31.73,31.69Zm-8,0A23.85,23.85,0,1,0,90,125.26a23.85,23.85,0,0,0,23.75-23.72Zm-11.44-8.84-11-11.86a2,2,0,0,0-2.59,0l-11,11.86c-.65.86-.43,1.51.65,1.51h4.75c.65,0,.86.22.86,1.08V108a1.67,1.67,0,0,0,1.73,1.51h8.63A1.47,1.47,0,0,0,95.85,108V95.29a1,1,0,0,1,1.08-1.08h4.75c1.08,0,1.3-.65.65-1.51Zm5.18,16.17v5.61a1.14,1.14,0,0,1-1.3,1.29H73.61a1.24,1.24,0,0,1-1.3-1.29v-5.61a1.44,1.44,0,0,1,1.3-1.51h1.94a1.44,1.44,0,0,1,1.3,1.51v2.59h26.34v-2.59a1.44,1.44,0,0,1,1.3-1.51h1.73c.86,0,1.3.65,1.3,1.51Z"/></svg>