<svg id="Layer_1" data-name="Layer 1" xmlns="http://www.w3.org/2000/svg" viewBox="0 0 176.25 137.5"><defs><style>.cls-1{fill:#606060;fill-rule:evenodd;}</style></defs><title>Artboard 5</title><path class="cls-1" d="M81,0a56.94,56.94,0,0,1,40.11,16.41,48.2,48.2,0,0,0-11.46-1.64c-26.19,0-48.29,23-48.29,50.87v3.28H82.67L40.92,110.77,0,68.92H18C18,30.36,46.65,0,81,0Z"/><path class="cls-1" d="M95,137.5c-15.59,0-29.53-5.72-41-16.33,4.1.82,7.38,1.63,11.48,1.63,27.07,0,48.4-22.86,48.4-50.62V68.92H92.57l41.84-41.64,41.84,41.64H157.38c0,38.37-27.89,68.58-62.34,68.58Z"/></svg>