<?xml version="1.0" encoding="iso-8859-1"?>
<!-- Generator: Adobe Illustrator 19.0.0, SVG Export Plug-In . SVG Version: 6.00 Build 0)  -->
<svg version="1.1" id="Capa_1" xmlns="http://www.w3.org/2000/svg" xmlns:xlink="http://www.w3.org/1999/xlink" x="0px" y="0px"
	 viewBox="0 0 512 512" style="enable-background:new 0 0 512 512;" xml:space="preserve">
<g>
	<g>
		<path d="M125,25c-24.813,0-45,20.187-45,45h30c0-8.271,6.729-15,15-15s15,6.729,15,15h30C170,45.187,149.813,25,125,25z"/>
	</g>
</g>
<g>
	<g>
		<path d="M387,25c-24.813,0-45,20.187-45,45h30c0-8.271,6.729-15,15-15s15,6.729,15,15h30C432,45.187,411.813,25,387,25z"/>
	</g>
</g>
<g>
	<g>
		<rect x="413" y="300" width="99" height="65"/>
	</g>
</g>
<g>
	<g>
		<rect y="300" width="99" height="65"/>
	</g>
</g>
<g>
	<g>
		<rect x="129" y="300" width="65" height="65"/>
	</g>
</g>
<g>
	<g>
		<rect y="205" width="99" height="65"/>
	</g>
</g>
<g>
	<g>
		<rect x="129" y="205" width="65" height="65"/>
	</g>
</g>
<g>
	<g>
		<path d="M372,70v30c0,8.271,6.729,15,15,15s15-6.729,15-15V70H372z"/>
	</g>
</g>
<g>
	<g>
		<path d="M110,70v30c0,8.271,6.729,15,15,15s15-6.729,15-15V70H110z"/>
	</g>
</g>
<g>
	<g>
		<path d="M432,70v30c0,24.813-20.187,45-45,45s-45-20.187-45-45V70H170v30c0,24.813-20.187,45-45,45s-45-20.187-45-45V70H0v105h512
			V70H432z"/>
	</g>
</g>
<g>
	<g>
		<rect x="413" y="205" width="99" height="65"/>
	</g>
</g>
<g>
	<g>
		<rect x="224" y="395" width="64" height="92"/>
	</g>
</g>
<g>
	<g>
		<rect x="318" y="205" width="65" height="65"/>
	</g>
</g>
<g>
	<g>
		<rect y="395" width="99" height="92"/>
	</g>
</g>
<g>
	<g>
		<rect x="318" y="300" width="65" height="65"/>
	</g>
</g>
<g>
	<g>
		<rect x="413" y="395" width="99" height="92"/>
	</g>
</g>
<g>
	<g>
		<rect x="224" y="205" width="64" height="65"/>
	</g>
</g>
<g>
	<g>
		<rect x="224" y="300" width="64" height="65"/>
	</g>
</g>
<g>
	<g>
		<rect x="318" y="395" width="65" height="92"/>
	</g>
</g>
<g>
	<g>
		<rect x="129" y="395" width="65" height="92"/>
	</g>
</g>
<g>
</g>
<g>
</g>
<g>
</g>
<g>
</g>
<g>
</g>
<g>
</g>
<g>
</g>
<g>
</g>
<g>
</g>
<g>
</g>
<g>
</g>
<g>
</g>
<g>
</g>
<g>
</g>
<g>
</g>
</svg>
