<?xml version="1.0"?>
<svg xmlns="http://www.w3.org/2000/svg" viewBox="0 0 64 64" width="512" height="512"><path d="m61.84381 35.07782v-6.15564l-4.344-1.22034a25.67687 25.67687 0 0 0 -1.26642-4.74475l3.14447-3.21972a29.96113 29.96113 0 0 0 -3.07807-5.32172l-4.35858 1.11609a26.01027 26.01027 0 0 0 -3.47221-3.47229l1.11609-4.35871a29.95776 29.95776 0 0 0 -5.32177-3.0783l-3.22 3.14434a25.68075 25.68075 0 0 0 -4.745-1.26666l-1.22038-4.34393h-6.15576l-1.22028 4.34393a25.67761 25.67761 0 0 0 -4.74481 1.26648l-3.21972-3.14447a29.9601 29.9601 0 0 0 -5.3216 3.07807l1.116 4.35858a26.01743 26.01743 0 0 0 -3.47229 3.47216l-4.35864-1.116a29.957 29.957 0 0 0 -3.07837 5.32171l3.14434 3.22a25.68419 25.68419 0 0 0 -1.2666 4.74506l-4.344 1.2204v6.15559l4.344 1.22027a25.67747 25.67747 0 0 0 1.26636 4.74482l-3.14444 3.21984a29.96683 29.96683 0 0 0 3.07807 5.3216l4.35858-1.116a26.01381 26.01381 0 0 0 3.47222 3.47232l-1.11609 4.35858a29.96142 29.96142 0 0 0 5.32177 3.07843l3.21991-3.14441a25.68153 25.68153 0 0 0 4.74518 1.26667l1.22028 4.34387h6.15565l1.22021-4.34381a25.67475 25.67475 0 0 0 4.745-1.26654l3.21972 3.14453a29.95246 29.95246 0 0 0 5.3216-3.07813l-1.116-4.35858a26.01337 26.01337 0 0 0 3.47232-3.47216l4.35864 1.11609a29.95192 29.95192 0 0 0 3.07837-5.32184l-3.14428-3.21991a25.67749 25.67749 0 0 0 1.26654-4.74517z" fill="#92b1f9"/><circle cx="32" cy="32" fill="#bacdf4" r="22"/><circle cx="32" cy="32" fill="#e4e4ef" r="19"/><g fill="#6c6c6c"><path d="m31 13h2v4h-2z"/><path d="m31 47h2v4h-2z"/><path d="m47 31h4v2h-4z"/><path d="m13 31h4v2h-4z"/><path d="m42.02072 18.9796h3.99957v1.99979h-3.99957z" transform="matrix(.70710678 -.70710678 .70710678 .70710678 -1.23433 36.97906)"/><path d="m17.97971 43.02061h3.99957v1.99979h-3.99957z" transform="matrix(.70710678 -.70710678 .70710678 .70710678 -25.27534 27.02094)"/><path d="m43.02061 42.02072h1.99979v3.99957h-1.99979z" transform="matrix(.70710678 -.70710678 .70710678 .70710678 -18.23389 44.02051)"/><path d="m18.9796 17.97971h1.99979v3.99957h-1.99979z" transform="matrix(.70710678 -.70710678 .70710678 .70710678 -8.27578 19.97949)"/></g><path d="m40 24-7.56567 5.04382a3.094 3.094 0 1 0 2.52185 2.52185z" fill="#f73445"/></svg>
