<svg id="Layer_1" data-name="Layer 1" xmlns="http://www.w3.org/2000/svg" viewBox="0 0 18.96 19.33"><defs><style>.cls-1{fill:#9b041a;fill-rule:evenodd;}</style></defs><title>Artboard 75</title><path class="cls-1" d="M18,5.77V17.19a1.11,1.11,0,0,1-1.11,1.14H5.44a1.09,1.09,0,0,1-1.1-1.06V15.69H5.6V17H16.7V6.16H14.06a1,1,0,0,1-.94-1V2.3H5.6V3.64H4.3V2.14A1.14,1.14,0,0,1,5.44,1h7.79a2.39,2.39,0,0,1,.48.08A2.67,2.67,0,0,1,15,1.75L17.25,4A2.87,2.87,0,0,1,18,5.57ZM1.15,9.31l3.74,5.36a.64.64,0,0,0,1.14,0L9.77,9.31c.31-.43.12-.79-.43-.79H7.88V5.29a1,1,0,0,0-1-1H4a1,1,0,0,0-.94,1V8.52H1.58c-.55,0-.74.36-.43.79"/></svg>