<?xml version="1.0" encoding="iso-8859-1"?>
<!-- Generator: Adobe Illustrator 19.0.0, SVG Export Plug-In . SVG Version: 6.00 Build 0)  -->
<svg version="1.1" id="Layer_1" xmlns="http://www.w3.org/2000/svg" xmlns:xlink="http://www.w3.org/1999/xlink" x="0px" y="0px"
	 viewBox="0 0 504 504" style="enable-background:new 0 0 504 504;" xml:space="preserve">
<path style="fill:#F4EFEF;" d="M348.2,4h-276c-8,0-18,8.4-18,16v464c0,7.6,10.4,16,18,16H437c7.6,0,13.2-8,13.2-16V108L348.2,4z"/>
<path style="fill:#D8D8D8;" d="M344.6,4.8v1.6v71.2c0,13.6,15.2,30.8,28.8,30.8h76.4L344.6,4.8z"/>
<path d="M406.2,300h-308c-2.4,0-4-1.6-4-4s1.6-4,4-4h308c2.4,0,4,1.6,4,4S408.2,300,406.2,300z"/>
<path d="M406.2,260h-308c-2.4,0-4-1.6-4-4s1.6-4,4-4h308c2.4,0,4,1.6,4,4S408.2,260,406.2,260z"/>
<path d="M406.2,220h-308c-2.4,0-4-1.6-4-4s1.6-4,4-4h308c2.4,0,4,1.6,4,4S408.2,220,406.2,220z"/>
<path d="M406.2,380h-308c-2.4,0-4-1.6-4-4s1.6-4,4-4h308c2.4,0,4,1.6,4,4S408.2,380,406.2,380z"/>
<path d="M406.2,340h-308c-2.4,0-4-1.6-4-4s1.6-4,4-4h308c2.4,0,4,1.6,4,4S408.2,340,406.2,340z"/>
<path d="M406.2,420h-312c-2.4,0-4-1.6-4-4V176c0-2.4,1.6-4,4-4h312c2.4,0,4,1.6,4,4v240C410.2,418.4,408.2,420,406.2,420z M98.2,412
	h304V180h-304V412z"/>
<path d="M134.2,416c-2.4,0-4-1.6-4-4V176c0-2.4,1.6-4,4-4s4,1.6,4,4v236C138.2,414.4,136.2,416,134.2,416z"/>
<path d="M238.2,416c-2.4,0-4-1.6-4-4V176c0-2.4,1.6-4,4-4s4,1.6,4,4v236C242.2,414.4,240.2,416,238.2,416z"/>
<path d="M322.2,416c-2.4,0-4-1.6-4-4V176c0-2.4,1.6-4,4-4s4,1.6,4,4v236C326.2,414.4,324.2,416,322.2,416z"/>
<path d="M431.8,504H71c-10.8,0-19.2-8.8-19.2-20V20C51.8,8.8,60.2,0,71,0h272c1.2,0,2,0.4,2.8,1.2l105.2,104
	c0.8,0.8,1.2,1.6,1.2,2.8v376C452.2,495.2,443,504,431.8,504z M71,8c-6.4,0-11.2,5.2-11.2,12v464c0,6.8,4.8,12,11.2,12h360.8
	c6.8,0,12.4-5.6,12.4-12V109.6L341.4,8H71z"/>
<path d="M412.2,112h-38.4c-16.8,0-33.6-17.6-33.6-34.8V8c0-2.4,1.6-4,4-4s4,1.6,4,4v69.2c0,12.8,13.6,26.8,25.6,26.8h38.4
	c2.4,0,4,1.6,4,4S414.2,112,412.2,112z"/>
<g>
</g>
<g>
</g>
<g>
</g>
<g>
</g>
<g>
</g>
<g>
</g>
<g>
</g>
<g>
</g>
<g>
</g>
<g>
</g>
<g>
</g>
<g>
</g>
<g>
</g>
<g>
</g>
<g>
</g>
</svg>
