<svg id="Layer_1" data-name="Layer 1" xmlns="http://www.w3.org/2000/svg" viewBox="0 0 189.75 193.93"><defs><style>.cls-1{fill:#fff;fill-rule:evenodd;}</style></defs><title>upload icon</title><path class="cls-1" d="M189.75,53.33V181.15c0,7.05-5.29,12.78-12.33,12.78H49.69c-6.61,0-12.33-5.29-12.33-11.9V164.4H51.45v15h124.2V57.74H146.15a10.82,10.82,0,0,1-10.57-11V14.54H51.45v15H36.92V12.78A12.79,12.79,0,0,1,49.69,0H136.9a26.35,26.35,0,0,1,5.29.88,30.74,30.74,0,0,1,14.09,7.49l25.55,25.56c4,3.53,7,11,7.93,17.19h0v2.2Zm-91.61,47.6L56.3,41C52.77,35.7,47,35.7,43.52,41L1.68,100.93c-3.52,4.85-1.32,8.81,4.84,8.81h16.3v36.14a10.82,10.82,0,0,0,10.57,11h33a10.82,10.82,0,0,0,10.57-11V109.75h16.3c6.17,0,8.37-4,4.84-8.81Z"/></svg>